<?xml version="1.0" encoding="UTF-8" standalone="no"?><!DOCTYPE svg PUBLIC "-//W3C//DTD SVG 1.1//EN" "http://www.w3.org/Graphics/SVG/1.1/DTD/svg11.dtd"><svg width="100%" height="100%" viewBox="0 0 539 539" version="1.1" xmlns="http://www.w3.org/2000/svg" xmlns:xlink="http://www.w3.org/1999/xlink" xml:space="preserve" xmlns:serif="http://www.serif.com/" style="fill-rule:evenodd;clip-rule:evenodd;stroke-linejoin:round;stroke-miterlimit:2;"><rect id="Artboard1" x="0" y="0" width="539" height="539" style="fill:none;"/><clipPath id="_clip1"><rect x="0" y="0" width="539" height="539"/></clipPath><g clip-path="url(#_clip1)"><path d="M270,0.5c148.741,0 269.5,120.759 269.5,269.5c0,148.741 -120.759,269.5 -269.5,269.5c-148.741,0 -269.5,-120.759 -269.5,-269.5c0,-148.741 120.759,-269.5 269.5,-269.5Zm176.872,123.977c0,2.622 -0.899,5.099 -2.698,7.429c-1.8,2.331 -3.419,4.589 -4.859,6.774c-1.439,2.185 -2.159,6.628 -2.159,13.328c0.24,9.323 0.24,14.13 0,14.422c-5.998,62.346 -8.996,120.613 -8.996,174.802c0,28.551 0,42.389 0,41.515c0.959,20.685 4.558,32.339 10.796,34.961l0,4.37c-1.2,3.205 -3.239,4.807 -6.118,4.807c-15.114,0 -24.111,-17.917 -26.99,-53.752c-1.199,-13.693 -1.319,-27.531 -0.36,-41.515l9.357,-141.153c-8.877,39.33 -17.754,78.661 -26.63,117.991c-16.314,61.764 -32.268,92.646 -47.862,92.646c-6.957,0 -14.154,-5.39 -21.592,-16.17c-5.997,-8.157 -10.556,-17.188 -13.674,-27.094c-7.438,-23.016 -15.115,-54.917 -23.032,-95.704c-5.997,-32.63 -12.115,-65.114 -18.353,-97.452l-2.159,6.555c-4.318,53.897 -6.117,92.499 -5.398,115.806l3.599,100.074c0.48,10.489 3.359,16.17 8.637,17.044c0.24,7.866 -5.518,11.799 -17.274,11.799c-10.796,0 -16.194,-24.035 -16.194,-72.106c0,-21.85 0.96,-54.407 2.879,-97.671c1.92,-43.263 2.879,-75.82 2.879,-97.671c0,-4.661 -0.36,-8.303 -1.079,-10.925c-0.72,-2.622 -1.08,-4.224 -1.08,-4.807c0,-11.362 9.596,-17.043 28.789,-17.043c3.599,0 7.917,3.059 12.955,9.177c0.72,9.032 1.799,22.433 3.239,40.205c2.639,25.637 9.716,62.928 21.232,111.873c13.914,60.016 25.31,90.023 34.187,90.023c11.275,0 23.631,-27.385 37.066,-82.157c8.396,-35.252 15.114,-70.212 20.152,-104.881c3.119,-11.071 7.077,-26.803 11.875,-47.197c2.879,-13.11 11.156,-19.665 24.831,-19.665c3.119,0 6.237,1.02 9.356,3.059c3.119,2.039 4.678,4.807 4.678,8.303Zm-228.152,280.995c-22.072,10.197 -47.022,15.295 -74.852,15.295c-20.632,0 -34.787,-9.76 -42.464,-29.279c-5.518,-13.693 -8.276,-34.67 -8.276,-62.929c0,-18.063 1.139,-45.012 3.418,-80.846c2.279,-35.835 3.419,-62.638 3.419,-80.409c0,-3.788 -0.24,-9.323 -0.72,-16.607c-0.48,-7.283 -0.72,-12.818 -0.72,-16.606c0,-2.913 0.12,-5.972 0.36,-9.177c2.639,-3.787 6.238,-5.681 10.796,-5.681c8.397,0 12.595,11.945 12.595,35.835c0,20.684 -1.559,51.712 -4.678,93.082c-3.119,41.37 -4.678,72.397 -4.678,93.082c0,39.33 10.796,58.996 32.388,58.996c7.197,0 17.333,-2.477 30.408,-7.429c13.075,-4.953 23.211,-7.43 30.408,-7.43c3.839,0 6.898,2.113 9.177,6.337c2.279,4.224 3.419,8.813 3.419,13.766Z" style="fill:#b58836;"/></g></svg>