<svg id="_x31_px" enable-background="new 0 0 24 24" height="512" viewBox="0 0 24 24" width="512" xmlns="http://www.w3.org/2000/svg"><path d="m19.5 24h-15c-1.378 0-2.5-1.122-2.5-2.5v-19c0-1.378 1.122-2.5 2.5-2.5h15c1.378 0 2.5 1.122 2.5 2.5v19c0 1.378-1.122 2.5-2.5 2.5zm-15-23c-.827 0-1.5.673-1.5 1.5v19c0 .827.673 1.5 1.5 1.5h15c.827 0 1.5-.673 1.5-1.5v-19c0-.827-.673-1.5-1.5-1.5z"/><path d="m18.5 21h-3c-.276 0-.5-.224-.5-.5v-5c0-.276.224-.5.5-.5s.5.224.5.5v4.5h2.5c.276 0 .5.224.5.5s-.224.5-.5.5z"/><path d="m13.5 21c-.276 0-.5-.224-.5-.5v-2.882l-.553 1.105c-.17.339-.725.339-.895 0l-.552-1.105v2.882c0 .276-.224.5-.5.5s-.5-.224-.5-.5v-5c0-.232.16-.434.385-.487.222-.054.458.056.562.263l1.053 2.106 1.053-2.105c.104-.208.335-.317.562-.263.225.052.385.254.385.486v5c0 .276-.224.5-.5.5z"/><path d="m8.5 21c-.17 0-.335-.086-.429-.243l-3-5c-.142-.237-.065-.544.171-.686.237-.143.544-.065.686.171l3 5c.142.237.065.544-.171.686-.08.049-.169.072-.257.072z"/><path d="m5.5 21c-.087 0-.176-.023-.257-.071-.237-.142-.313-.449-.171-.686l3-5c.142-.237.449-.314.686-.171.237.142.313.449.171.686l-3 5c-.094.156-.26.242-.429.242z"/></svg>